<svg xmlns="http://www.w3.org/2000/svg" width="24.684" height="24.684" viewBox="0 0 24.684 24.684"><defs><style>.a{fill:#fff;stroke:#000;}</style></defs><g transform="translate(8.614 8.613)"><path class="a" d="M193.717,197.708l-4.134-4.133-2,2a.708.708,0,0,1-1.173-.277L182.4,183.278a.708.708,0,0,1,.9-.9l12.024,4.008a.708.708,0,0,1,.277,1.173l-2,2,4.133,4.134a.708.708,0,0,1,0,1l-3.006,3.006A.708.708,0,0,1,193.717,197.708Z" transform="translate(-182.362 -182.344)"/></g><g transform="translate(8.502)"><path d="M180.709,5.668A.708.708,0,0,1,180,4.96V.709a.709.709,0,0,1,1.417,0V4.96A.708.708,0,0,1,180.709,5.668Z" transform="translate(-180)"/></g><g transform="translate(2.49 2.49)"><path d="M55.934,56.936l-3.006-3.006a.708.708,0,0,1,1-1l3.006,3.006a.708.708,0,0,1-1,1Z" transform="translate(-52.72 -52.72)"/></g><g transform="translate(2.49 11.508)"><path d="M52.927,247.849a.708.708,0,0,1,0-1l3.006-3.006a.708.708,0,0,1,1,1l-3.006,3.006A.708.708,0,0,1,52.927,247.849Z" transform="translate(-52.72 -243.634)"/></g><g transform="translate(11.508 2.49)"><path d="M243.84,56.937a.708.708,0,0,1,0-1l3.006-3.006a.708.708,0,0,1,1,1l-3.006,3.006A.708.708,0,0,1,243.84,56.937Z" transform="translate(-243.633 -52.721)"/></g><g transform="translate(0 8.502)"><path d="M4.96,181.417H.709a.709.709,0,0,1,0-1.417H4.96a.709.709,0,0,1,0,1.417Z" transform="translate(0 -180)"/></g></svg>