<svg xmlns="http://www.w3.org/2000/svg" width="18.908" height="23.178" viewBox="0 0 18.908 23.178"><defs><style>.a{fill:#fff;}</style></defs><g transform="matrix(0.966, -0.259, 0.259, 0.966, 0, 3.666)"><path class="a" d="M14.056,13,3.093.154A.438.438,0,0,0,2.475.105a.423.423,0,0,0-.149.272L0,17.113a.439.439,0,0,0,.372.495A.43.43,0,0,0,.7,17.525l4.463-3.4,1.691,5.76a.441.441,0,0,0,.543.3l2.409-.71a.441.441,0,0,0,.3-.543L8.449,13.3l5.239.425a.444.444,0,0,0,.473-.4A.424.424,0,0,0,14.056,13Zm-6.172-.635a.444.444,0,0,0-.473.4.39.39,0,0,0,.018.158l1.713,5.825-1.568.46L5.826,13.263a.441.441,0,0,0-.543-.3.384.384,0,0,0-.14.07L1.016,16.176,3.062,1.459l9.645,11.3Z"/></g></svg>